<?xml version="1.0" encoding="utf-8"?>
<!-- Generator: Adobe Illustrator 19.1.0, SVG Export Plug-In . SVG Version: 6.00 Build 0)  -->
<svg version="1.1" xmlns="http://www.w3.org/2000/svg" xmlns:xlink="http://www.w3.org/1999/xlink" x="0px" y="0px"
	 viewBox="0 0 2000 500" style="enable-background:new 0 0 2000 500;" xml:space="preserve">
<style type="text/css">
	.st0{fill:#E4E1D1;}
	.st1{clip-path:url(#SVGID_2_);}
	.st2{clip-path:url(#SVGID_4_);}
	.st3{clip-path:url(#SVGID_6_);}
	.st4{opacity:0.2;fill:#FF0043;}
</style>
<g id="Image_-_Notation_J">
	<rect x="0" class="st0" width="2000" height="500"/>
	<g>
		<defs>
			<rect id="SVGID_1_" x="1511.5" y="58.9" width="488.5" height="371.8"/>
		</defs>
		<clipPath id="SVGID_2_">
			<use xlink:href="#SVGID_1_"  style="overflow:visible;"/>
		</clipPath>
		<g class="st1">
			
				<image style="overflow:visible;" width="7172" height="4820" id="gri_x5F_980039_x5F_b176_x5F_f01_x5F_010_x5F_mm_1_" xlink:href="1B38234625C41E9C.jpg"  transform="matrix(0.2399 0 0 0.2399 1446.738 -567.054)">
			</image>
		</g>
	</g>
	<g>
		<defs>
			<rect id="SVGID_3_" x="80.4" y="59.4" width="1639.2" height="371.8"/>
		</defs>
		<clipPath id="SVGID_4_">
			<use xlink:href="#SVGID_3_"  style="overflow:visible;"/>
		</clipPath>
		<g class="st2">
			
				<image style="overflow:visible;" width="7172" height="4792" id="gri_x5F_980039_x5F_b176_x5F_f01_x5F_009_x5F_mm_1_" xlink:href="1B38234625C41EA6.jpg"  transform="matrix(0.2399 0 0 0.2399 32.841 -565.2586)">
			</image>
		</g>
	</g>
	<g>
		<defs>
			<rect id="SVGID_5_" x="0" y="61.7" width="265.3" height="371.8"/>
		</defs>
		<clipPath id="SVGID_6_">
			<use xlink:href="#SVGID_5_"  style="overflow:visible;"/>
		</clipPath>
		<g class="st3">
			
				<image style="overflow:visible;" width="7186" height="4834" id="gri_x5F_980039_x5F_b176_x5F_f01_x5F_005_x5F_mm_1_" xlink:href="1B38234625C41EA7.jpg"  transform="matrix(0.2399 0 0 0.2399 -1419.5201 -574.9894)">
			</image>
		</g>
	</g>
</g>
<g id="Spotlight_-_Cage_-_Notation_K">
	
		<rect id="s00:00:30_1_" x="511.4" y="322.8" transform="matrix(0.9644 0.2643 -0.2643 0.9644 107.1899 -127.2275)" class="st4" width="30.1" height="24"/>
	
		<rect id="e00:02:10_1_" x="58.8" y="261.9" transform="matrix(0.9644 0.2643 -0.2643 0.9644 83.1974 -70.6683)" class="st4" width="490.9" height="24"/>
	
		<rect id="s00:02:32_1_" x="68.4" y="198.9" transform="matrix(0.998 -6.317707e-02 6.317707e-02 0.998 -13.1607 5.6778)" class="st4" width="29.7" height="24"/>
	
		<rect id="e00:03:00_1_" x="67.3" y="163.6" transform="matrix(0.998 -6.317707e-02 6.317707e-02 0.998 -9.8084 40.9234)" class="st4" width="1149.9" height="24"/>
	
		<rect id="s00:03:03_1_" x="958" y="76.4" transform="matrix(0.9907 -0.1361 0.1361 0.9907 -2.9782 133.2107)" class="st4" width="29.1" height="24"/>
	
		<rect id="e00:03:20_1_" x="62.8" y="137.6" transform="matrix(0.9907 -0.1361 0.1361 0.9907 -15.4578 73.1357)" class="st4" width="928.5" height="24"/>
	
		<rect id="s00:04:70_2_" x="952.7" y="76.5" transform="matrix(0.8746 -0.4849 0.4849 0.8746 78.9209 482.0979)" class="st4" width="37.1" height="24"/>
	
		<rect id="e00:06:50_1_" x="481" y="198.5" transform="matrix(0.8746 -0.4849 0.4849 0.8746 -7.8523 390.6949)" class="st4" width="540.3" height="24"/>
	
		<rect id="s00:06:90_1_" x="1191.6" y="272.7" transform="matrix(0.9971 -7.554167e-02 7.554167e-02 0.9971 -18.0572 92.0339)" class="st4" width="31.9" height="24"/>
	
		<rect id="e00:08:00_1_" x="509.9" y="298.5" transform="matrix(0.9971 -7.554167e-02 7.554167e-02 0.9971 -20.9776 66.3963)" class="st4" width="714.6" height="24"/>
	
		<rect id="s00:08:60_1_" x="511.8" y="320" transform="matrix(0.8757 -0.4829 0.4829 0.8757 -94.8011 295.8814)" class="st4" width="30.7" height="24"/>
	
		<rect id="e00:09:70_1_" x="480.3" y="197.5" transform="matrix(0.8757 -0.4829 0.4829 0.8757 -7.9709 387.9714)" class="st4" width="538.3" height="24"/>
	
		<rect id="s00:10:22_1_" x="956.2" y="75.8" transform="matrix(0.9707 -0.2402 0.2402 0.9707 7.3534 235.997)" class="st4" width="31.5" height="24"/>
	
		<rect id="e00:10:50_1_" x="633.5" y="115.2" transform="matrix(0.9707 -0.2402 0.2402 0.9707 -6.7432 198.9743)" class="st4" width="359" height="24"/>
	
		<rect id="s00:10:96_1_" x="1184.4" y="128.6" transform="matrix(0.9607 -0.2775 0.2775 0.9607 8.1151 338.609)" class="st4" width="31.7" height="24"/>
	
		<rect id="e00:11:70_1_" x="498.1" y="225.8" transform="matrix(0.9607 -0.2775 0.2775 0.9607 -32.0494 249.1035)" class="st4" width="731.8" height="24"/>
	
		<rect id="s00:13:55_1_" x="1192.7" y="274.7" transform="matrix(0.9977 6.707618e-02 -6.707618e-02 0.9977 21.9482 -80.3654)" class="st4" width="30.1" height="24"/>
	
		<rect id="e00:15:10_1_" x="63.2" y="236.7" transform="matrix(0.9977 6.707618e-02 -6.707618e-02 0.9977 18.1337 -42.6099)" class="st4" width="1160.9" height="24"/>
	
		<rect id="s00:15:56_1_" x="952.7" y="76.5" transform="matrix(-0.7683 -0.6401 0.6401 -0.7683 1656.3157 776.6447)" class="st4" width="32.1" height="24"/>
	
		<rect id="e00:16:20_1_" x="916.4" y="176.6" transform="matrix(-0.7683 -0.6401 0.6401 -0.7683 1804.6812 1030.5477)" class="st4" width="344.9" height="24"/>
	
		<rect id="s00:16:31_1_" x="1186" y="130.3" transform="matrix(0.998 -6.362802e-02 6.362802e-02 0.998 -6.6215 76.6937)" class="st4" width="29.7" height="24"/>
	
		<rect id="e00:17:30_1_" x="66.4" y="166" transform="matrix(0.998 -6.362802e-02 6.362802e-02 0.998 -10.0233 41.1838)" class="st4" width="1150.4" height="24"/>
	
		<rect id="s00:17:78_1_" x="1183.2" y="129" transform="matrix(-6.432571e-02 -0.9979 0.9979 -6.432571e-02 1134.6056 1345.8368)" class="st4" width="30.1" height="24"/>
	
		<rect id="e00:18:50_1_" x="1112.3" y="204.6" transform="matrix(-6.432571e-02 -0.9979 0.9979 -6.432571e-02 1064.3425 1431.1704)" class="st4" width="181.7" height="24"/>
	
		<rect id="s00:19:05_1_" x="1615.6" y="271.1" transform="matrix(1 -7.968381e-03 7.968381e-03 1 -2.2038 13.0067)" class="st4" width="31" height="24"/>
	
		<rect id="e00:20:60_1_" x="1192.4" y="272.8" transform="matrix(1 -7.968382e-03 7.968382e-03 1 -2.224 11.3204)" class="st4" width="454.3" height="24"/>
	
		<rect id="s00:20:84_1_" x="1932" y="90.7" transform="matrix(0.9987 -5.022844e-02 5.022844e-02 0.9987 -2.7006 97.9719)" class="st4" width="32" height="24"/>
	
		<rect id="e00:20:90_1_" x="631.4" y="123.4" transform="matrix(0.9987 -5.022907e-02 5.022907e-02 0.9987 -5.1626 65.371)" class="st4" width="1333.4" height="24"/>
	
		<rect id="s00:22:75_1_" x="954.1" y="77.5" transform="matrix(-0.9598 -0.2806 0.2806 -0.9598 1874.2906 447.2946)" class="st4" width="30.1" height="24"/>
	
		<rect id="e00:25:00_1_" x="940.2" y="174.8" transform="matrix(-0.9598 -0.2806 0.2806 -0.9598 2499.5159 731.4751)" class="st4" width="723.9" height="24"/>
	
		<rect id="s00:26:77_1_" x="1617.7" y="270.3" transform="matrix(0.9988 -4.803111e-02 4.803111e-02 0.9988 -11.6718 78.7895)" class="st4" width="31.8" height="24"/>
	
		<rect id="e00:27:30_1_" x="506.3" y="297" transform="matrix(0.9988 -4.803111e-02 4.803111e-02 0.9988 -13.5956 52.1441)" class="st4" width="1143.8" height="24"/>
	
		<rect id="s00:27:60_1_" x="1618.8" y="270.6" transform="matrix(0.9989 4.710931e-02 -4.710931e-02 0.9989 15.1274 -76.6556)" class="st4" width="30.1" height="24"/>
	
		<rect id="e00:28:70_1_" x="67.5" y="234" transform="matrix(0.9989 4.710931e-02 -4.710931e-02 0.9989 12.5444 -40.177)" class="st4" width="1582.3" height="24"/>
	
		<rect id="s00:28:92_1_" x="1191.8" y="275.8" transform="matrix(-0.9705 0.241 -0.241 -0.9705 2448.8572 276.0725)" class="st4" width="31.4" height="24"/>
	
		<rect id="e00:29:55_1_" x="1180.6" y="183.7" transform="matrix(-0.9705 0.241 -0.241 -0.9705 3157.4216 5.2288)" class="st4" width="795.7" height="24"/>
	
		<rect id="s00:30:11_1_" x="637.3" y="154.3" transform="matrix(-0.9988 4.821476e-02 -4.821476e-02 -0.9988 1313.797 300.831)" class="st4" width="32" height="24"/>
	
		<rect id="e00:32:50_1_" x="636.5" y="123" transform="matrix(-0.9988 4.821476e-02 -4.821476e-02 -0.9988 2606.5847 207.134)" class="st4" width="1328.6" height="24"/>
</g>
</svg>
