<?xml version="1.0" encoding="utf-8"?>
<!-- Generator: Adobe Illustrator 19.1.0, SVG Export Plug-In . SVG Version: 6.00 Build 0)  -->
<svg version="1.1" xmlns="http://www.w3.org/2000/svg" xmlns:xlink="http://www.w3.org/1999/xlink" x="0px" y="0px"
	 viewBox="0 0 2000 1260" style="enable-background:new 0 0 2000 1260;" xml:space="preserve">
<style type="text/css">
	.st0{clip-path:url(#SVGID_2_);}
	.st1{opacity:0.2;fill:#FF0043;}
	.st2{display:none;opacity:0.2;fill:#FF0043;}
</style>
<g id="Image_-_Notation_J">
	<g>
		<defs>
			<rect id="SVGID_1_" x="0" y="0" width="2000" height="1260"/>
		</defs>
		<clipPath id="SVGID_2_">
			<use xlink:href="#SVGID_1_"  style="overflow:visible;"/>
		</clipPath>
		<g class="st0">
			
				<image style="overflow:visible;" width="8378" height="2734" id="gri_x5F_980039_x5F_29_x5F_b6_x5F_f13_x5F_006_x5F_355536ds_2_" xlink:href="9681F79749E8083C.jpg"  transform="matrix(0.558 0 0 0.558 -2336.343 -134.1797)">
			</image>
		</g>
	</g>
</g>
<g id="Spotlight_-_Tudor_-_Notation_J">
	
		<rect id="s00:00:30_1_" x="347.3" y="549.7" transform="matrix(0.3161 -0.9487 0.9487 0.3161 -289.3945 743.2653)" class="st1" width="47.1" height="45.3"/>
	
		<rect id="e00:02:10_1_" x="289.3" y="469.2" transform="matrix(0.3161 -0.9487 0.9487 0.3161 -194.6948 713.6696)" class="st1" width="216.7" height="45.3"/>
	<rect id="s00:02:32_2_" x="492.1" y="205.5" class="st1" width="52" height="30.2"/>
	<rect id="e00:03:00_2_" x="492.1" y="205.5" class="st1" width="52" height="95.1"/>
	
		<rect id="s00:03:03_1_" x="543.8" y="131.6" transform="matrix(-9.301587e-02 -0.9957 0.9957 -9.301587e-02 452.2638 730.6685)" class="st1" width="30.2" height="55.4"/>
	
		<rect id="e00:03:20_1_" x="467.9" y="215" transform="matrix(-9.301587e-02 -0.9957 0.9957 -9.301587e-02 377.7662 829.5505)" class="st1" width="197.6" height="55.4"/>
	
		<rect id="s00:04:70_2_" x="771.6" y="110.3" transform="matrix(-0.1853 -0.9827 0.9827 -0.1853 793.8179 941.8441)" class="st1" width="31.5" height="63.2"/>
	
		<rect id="e00:06:50_1_" x="613.2" y="301.3" transform="matrix(-0.1853 -0.9827 0.9827 -0.1853 648.8027 1203.6447)" class="st1" width="420.3" height="63.2"/>
	
		<rect id="s00:06:90_1_" x="945.6" y="423.6" transform="matrix(-0.9373 -0.3485 0.3485 -0.9373 1695.0492 1235.4795)" class="st1" width="26" height="83.4"/>
	
		<rect id="e00:08:00_1_" x="941.5" y="448.2" transform="matrix(-0.9373 -0.3485 0.3485 -0.9373 1814.4315 1306.0574)" class="st1" width="166.4" height="83.4"/>
	
		<rect id="s00:08:60_1_" x="1162.7" y="513.3" transform="matrix(-0.2124 0.9772 -0.9772 -0.2124 1959.9329 -492.3574)" class="st1" width="31.4" height="60.7"/>
	
		<rect id="e00:09:70_1_" x="1011.2" y="325.3" transform="matrix(-0.2124 0.9772 -0.9772 -0.2124 1825.7833 -760.2092)" class="st1" width="416.1" height="60.7"/>
	<rect id="s00:10:22_1_" x="1299.3" y="121.4" class="st1" width="54" height="33.6"/>
	<rect id="e00:10:50_1_" x="1299.3" y="121.4" class="st1" width="54" height="173.6"/>
	<rect id="s00:10:96_1_" x="1365" y="150.1" class="st1" width="69.9" height="43.1"/>
	<rect id="e00:11:70_1_" x="1365" y="150.1" class="st1" width="69.9" height="411.1"/>
	
		<rect id="s00:13:55_1_" x="1518.9" y="445.4" transform="matrix(-0.9278 0.3731 -0.3731 -0.9278 3146.5012 364.9143)" class="st1" width="38.1" height="83.1"/>
	
		<rect id="e00:15:10_1_" x="1509.3" y="395.8" transform="matrix(-0.9278 0.3731 -0.3731 -0.9278 3366.0015 223.108)" class="st1" width="304.3" height="83.1"/>
	
		<rect id="s00:15:56_1_" x="1796.1" y="151.3" transform="matrix(-0.1874 -0.9823 0.9823 -0.1874 1979.8107 1992.4745)" class="st1" width="35.9" height="52"/>
	
		<rect id="e00:16:20_1_" x="1734" y="226.4" transform="matrix(-0.1874 -0.9823 0.9823 -0.1874 1923.0889 2095.6514)" class="st1" width="188.7" height="52"/>
	
		<rect id="s00:16:31_1_" x="203.3" y="664.4" transform="matrix(-0.7868 -0.6173 0.6173 -0.7868 -25.8237 1382.0093)" class="st1" width="44.9" height="62.2"/>
	
		<rect id="e00:17:30_1_" x="189" y="705.8" transform="matrix(-0.7868 -0.6173 0.6173 -0.7868 42.9104 1488.5575)" class="st1" width="179.1" height="62.2"/>
	<rect id="s00:17:78_1_" x="364.9" y="655.3" class="st1" width="78.7" height="55.9"/>
	<rect id="e00:18:50_1_" x="364.9" y="655.3" class="st1" width="78.7" height="333.4"/>
	<rect id="s00:19:05_1_" x="438.8" y="903.6" class="st1" width="45.3" height="39.1"/>
	<rect id="e00:20:60_1_" x="438.8" y="903.6" class="st1" width="45.3" height="123.1"/>
	
		<rect id="s00:20:84_1_" x="549.1" y="634.2" transform="matrix(-0.8895 -0.4569 0.4569 -0.8895 769.7823 1567.0721)" class="st1" width="50.5" height="112.5"/>
	
		<rect id="e00:20:90_1_" x="538.7" y="677.1" transform="matrix(-0.8895 -0.4569 0.4569 -0.8895 908.137 1686.4357)" class="st1" width="238.5" height="112.5"/>
	
		<rect id="s00:22:75_1_" x="796" y="564.5" transform="matrix(-0.3982 -0.9173 0.9173 -0.3982 575.8769 1617.0254)" class="st1" width="44.7" height="110.2"/>
	
		<rect id="e00:25:00_1_" x="688.1" y="729.1" transform="matrix(-0.3982 -0.9173 0.9173 -0.3982 524.8098 1912.5953)" class="st1" width="403.5" height="110.2"/>
	<rect id="s00:26:77_1_" x="1039.2" y="885.7" class="st1" width="85.6" height="33.6"/>
	<rect id="e00:27:30_1_" x="1039.2" y="885.7" class="st1" width="85.6" height="149.9"/>
	
		<rect id="s00:27:60_1_" x="1149.5" y="859.2" transform="matrix(-0.9591 0.2831 -0.2831 -0.9591 2533.7319 1465.6232)" class="st1" width="22.9" height="113.5"/>
	
		<rect id="e00:28:70_1_" x="1146.6" y="834.4" transform="matrix(-0.9591 0.2831 -0.2831 -0.9591 2690.6548 1393.5422)" class="st1" width="196.1" height="113.5"/>
	
		<rect id="s00:28:92_1_" x="1330.8" y="933.6" transform="matrix(-6.297800e-02 0.998 -0.998 -6.297800e-02 2396.1997 -323.757)" class="st1" width="38.5" height="58.7"/>
	
		<rect id="e00:29:55_1_" x="1162.9" y="754.8" transform="matrix(-6.297899e-02 0.998 -0.998 -6.297899e-02 2229.7268 -525.1049)" class="st1" width="396.8" height="58.7"/>
	
		<rect id="s00:30:11_1_" x="1977.2" y="577" transform="matrix(-0.9543 0.2988 -0.2988 -0.9543 4086.7297 689.7031)" class="st2" width="26.8" height="160.5"/>
	
		<rect id="e00:32:50_1_" x="1970.2" y="528.7" transform="matrix(-0.9465 0.3228 -0.3228 -0.9465 4349.6431 495.4161)" class="st2" width="327.2" height="159.3"/>
	
		<rect id="s00:02:32_1_" x="1428.3" y="640.7" transform="matrix(-0.9464 0.323 -0.323 -0.9464 3051.2512 923.8187)" class="st1" width="41.4" height="148.7"/>
	
		<rect id="e00:03:00_1_" x="1420.8" y="595.5" transform="matrix(-0.9464 0.323 -0.323 -0.9464 3294.5286 793.0216)" class="st1" width="321.3" height="148.7"/>
</g>
</svg>
