<?xml version="1.0" encoding="utf-8"?>
<!-- Generator: Adobe Illustrator 19.1.0, SVG Export Plug-In . SVG Version: 6.00 Build 0)  -->
<svg version="1.1" xmlns="http://www.w3.org/2000/svg" xmlns:xlink="http://www.w3.org/1999/xlink" x="0px" y="0px"
	 viewBox="0 0 2064 1800" style="enable-background:new 0 0 2064 1800;" xml:space="preserve">
<style type="text/css">
	.st0{clip-path:url(#SVGID_2_);}
	.st1{fill:#E4E1D1;}
	.st2{clip-path:url(#SVGID_4_);}
	.st3{clip-path:url(#SVGID_6_);}
	.st4{clip-path:url(#SVGID_8_);}
	.st5{opacity:0.2;fill:#FF0043;}
</style>
<g id="Image_-_Notation_J">
	<g>
		<defs>
			<rect id="SVGID_1_" x="0" y="514.8" width="2064" height="1285.2"/>
		</defs>
		<clipPath id="SVGID_2_">
			<use xlink:href="#SVGID_1_"  style="overflow:visible;"/>
		</clipPath>
		<g class="st0">
			
				<image style="overflow:visible;" width="8378" height="2734" id="gri_x5F_980039_x5F_29_x5F_b6_x5F_f13_x5F_006_x5F_355536ds_2_" xlink:href="3B0C1E7957E846E0.jpg"  transform="matrix(0.5758 0 0 0.5758 -2411.0503 368.7847)">
			</image>
		</g>
	</g>
	<rect x="0" class="st1" width="2064" height="523.8"/>
	<g>
		<defs>
			<rect id="SVGID_3_" x="1559.9" y="72.9" width="504.1" height="383.7"/>
		</defs>
		<clipPath id="SVGID_4_">
			<use xlink:href="#SVGID_3_"  style="overflow:visible;"/>
		</clipPath>
		<g class="st2">
			
				<image style="overflow:visible;" width="7172" height="4820" id="gri_x5F_980039_x5F_b176_x5F_f01_x5F_010_x5F_mm_1_" xlink:href="3B0C1E7957E846E1.jpg"  transform="matrix(0.2475 0 0 0.2475 1492.9969 -573.1086)">
			</image>
		</g>
	</g>
	<g>
		<defs>
			<rect id="SVGID_5_" x="82.9" y="73.4" width="1691.6" height="383.7"/>
		</defs>
		<clipPath id="SVGID_6_">
			<use xlink:href="#SVGID_5_"  style="overflow:visible;"/>
		</clipPath>
		<g class="st3">
			
				<image style="overflow:visible;" width="7172" height="4792" id="gri_x5F_980039_x5F_b176_x5F_f01_x5F_009_x5F_mm_1_" xlink:href="3B0C1E7957E846E7.jpg"  transform="matrix(0.2475 0 0 0.2475 33.8891 -571.2559)">
			</image>
		</g>
	</g>
	<g>
		<defs>
			<rect id="SVGID_7_" x="0" y="75.7" width="273.8" height="383.7"/>
		</defs>
		<clipPath id="SVGID_8_">
			<use xlink:href="#SVGID_7_"  style="overflow:visible;"/>
		</clipPath>
		<g class="st4">
			
				<image style="overflow:visible;" width="7186" height="4834" id="gri_x5F_980039_x5F_b176_x5F_f01_x5F_005_x5F_mm_1_" xlink:href="3B0C1E7957E846E2.jpg"  transform="matrix(0.2475 0 0 0.2475 -1464.9128 -581.2978)">
			</image>
		</g>
	</g>
</g>
<g id="Spotlight_-_Cage_-_Notation_K">
	
		<rect id="s00:00:30" x="527.7" y="342" transform="matrix(0.9644 0.2643 -0.2643 0.9644 113.8092 -130.8658)" class="st5" width="31.1" height="31.1"/>
	
		<rect id="e00:02:10" x="60.7" y="279.2" transform="matrix(0.9644 0.2643 -0.2643 0.9644 89.0495 -72.498)" class="st5" width="506.6" height="31.1"/>
	
		<rect id="s00:02:32" x="70.6" y="214.2" transform="matrix(0.998 -6.317707e-02 6.317707e-02 0.998 -14.3446 5.8834)" class="st5" width="30.6" height="31.1"/>
	
		<rect id="e00:03:00" x="69.4" y="177.7" transform="matrix(0.998 -6.317707e-02 6.317707e-02 0.998 -10.885 42.256)" class="st5" width="1186.7" height="31.1"/>
	
		<rect id="s00:03:03" x="988.6" y="87.7" transform="matrix(0.9907 -0.1361 0.1361 0.9907 -4.7175 137.5824)" class="st5" width="30.1" height="31.1"/>
	
		<rect id="e00:03:20" x="64.8" y="150.9" transform="matrix(0.9907 -0.1361 0.1361 0.9907 -17.5962 75.5864)" class="st5" width="958.2" height="31.1"/>
	
		<rect id="s00:04:70_1_" x="983.2" y="87.9" transform="matrix(0.8746 -0.4849 0.4849 0.8746 75.5875 499.0275)" class="st5" width="38.3" height="31.1"/>
	
		<rect id="e00:06:50" x="496.4" y="213.8" transform="matrix(0.8746 -0.4849 0.4849 0.8746 -13.9603 404.7019)" class="st5" width="557.6" height="31.1"/>
	
		<rect id="s00:06:90" x="1229.7" y="290.3" transform="matrix(0.9971 -7.554167e-02 7.554167e-02 0.9971 -19.547 95.0111)" class="st5" width="32.9" height="31.1"/>
	
		<rect id="e00:08:00" x="526.2" y="316.9" transform="matrix(0.9971 -7.554167e-02 7.554167e-02 0.9971 -22.5607 68.5538)" class="st5" width="737.4" height="31.1"/>
	
		<rect id="s00:08:60" x="528.2" y="339.2" transform="matrix(0.8757 -0.4829 0.4829 0.8757 -103.6654 306.8433)" class="st5" width="31.6" height="31.1"/>
	
		<rect id="e00:09:70" x="495.6" y="212.7" transform="matrix(0.8757 -0.4829 0.4829 0.8757 -14.0587 401.8779)" class="st5" width="555.5" height="31.1"/>
	
		<rect id="s00:10:22" x="986.8" y="87.2" transform="matrix(0.9707 -0.2402 0.2402 0.9707 4.6879 243.8963)" class="st5" width="32.5" height="31.1"/>
	
		<rect id="e00:10:50" x="653.8" y="127.7" transform="matrix(0.9707 -0.2402 0.2402 0.9707 -9.8595 205.6897)" class="st5" width="370.4" height="31.1"/>
	
		<rect id="s00:10:96" x="1222.3" y="141.7" transform="matrix(0.9607 -0.2775 0.2775 0.9607 5.0229 349.9102)" class="st5" width="32.7" height="31.1"/>
	
		<rect id="e00:11:70" x="514" y="241.9" transform="matrix(0.9607 -0.2775 0.2775 0.9607 -36.4259 257.5426)" class="st5" width="755.2" height="31.1"/>
	
		<rect id="s00:13:55" x="1230.9" y="292.4" transform="matrix(0.9977 6.707618e-02 -6.707618e-02 0.9977 23.4602 -82.9078)" class="st5" width="31" height="31.1"/>
	
		<rect id="e00:15:10" x="65.2" y="253.2" transform="matrix(0.9977 6.707618e-02 -6.707618e-02 0.9977 19.5237 -43.9451)" class="st5" width="1198" height="31.1"/>
	
		<rect id="s00:15:56" x="983.1" y="87.9" transform="matrix(-0.7683 -0.6401 0.6401 -0.7683 1701.5433 822.8337)" class="st5" width="33.1" height="31.1"/>
	
		<rect id="e00:16:20" x="945.7" y="191.2" transform="matrix(-0.7683 -0.6401 0.6401 -0.7683 1854.653 1084.8555)" class="st5" width="355.9" height="31.1"/>
	
		<rect id="s00:16:31" x="1223.9" y="143.4" transform="matrix(0.998 -6.362802e-02 6.362802e-02 0.998 -7.6017 79.1704)" class="st5" width="30.6" height="31.1"/>
	
		<rect id="e00:17:30" x="68.5" y="180.2" transform="matrix(0.998 -6.362802e-02 6.362802e-02 0.998 -11.1123 42.525)" class="st5" width="1187.2" height="31.1"/>
	
		<rect id="s00:17:78" x="1221" y="142" transform="matrix(-6.432571e-02 -0.9979 0.9979 -6.432571e-02 1158.8312 1401.7235)" class="st5" width="31.1" height="31.1"/>
	
		<rect id="e00:18:50" x="1147.8" y="220.1" transform="matrix(-6.432571e-02 -0.9979 0.9979 -6.432571e-02 1086.3214 1489.7858)" class="st5" width="187.5" height="31.1"/>
	
		<rect id="s00:19:05" x="1667.3" y="288.6" transform="matrix(1 -7.968381e-03 7.968381e-03 1 -2.3705 13.423)" class="st5" width="32" height="31.1"/>
	
		<rect id="e00:20:60" x="1230.5" y="290.4" transform="matrix(1 -7.968382e-03 7.968382e-03 1 -2.3913 11.6828)" class="st5" width="468.8" height="31.1"/>
	
		<rect id="s00:20:84" x="1993.7" y="102.5" transform="matrix(0.9987 -5.022907e-02 5.022907e-02 0.9987 -3.3936 101.1211)" class="st5" width="33" height="31.1"/>
	
		<rect id="e00:20:90" x="651.5" y="136.3" transform="matrix(0.9987 -5.022907e-02 5.022907e-02 0.9987 -5.9344 67.4764)" class="st5" width="1376" height="31.1"/>
	
		<rect id="s00:22:75" x="984.6" y="88.9" transform="matrix(-0.9598 -0.2806 0.2806 -0.9598 1930.8301 485.2664)" class="st5" width="31.1" height="31.1"/>
	
		<rect id="e00:25:00" x="970.2" y="189.3" transform="matrix(-0.9598 -0.2806 0.2806 -0.9598 2576.0486 778.5343)" class="st5" width="747.1" height="31.1"/>
	
		<rect id="s00:26:77" x="1669.4" y="287.8" transform="matrix(0.9988 -4.803111e-02 4.803111e-02 0.9988 -12.6251 81.3227)" class="st5" width="32.8" height="31.1"/>
	
		<rect id="e00:27:30" x="522.5" y="315.4" transform="matrix(0.9988 -4.803111e-02 4.803111e-02 0.9988 -14.6104 53.8253)" class="st5" width="1180.4" height="31.1"/>
	
		<rect id="s00:27:60" x="1670.5" y="288.2" transform="matrix(0.9989 4.710931e-02 -4.710931e-02 0.9989 16.18 -79.0932)" class="st5" width="31.1" height="31.1"/>
	
		<rect id="e00:28:70" x="69.7" y="250.4" transform="matrix(0.9989 4.710931e-02 -4.710931e-02 0.9989 13.5145 -41.4482)" class="st5" width="1632.9" height="31.1"/>
	
		<rect id="s00:28:92" x="1229.9" y="293.5" transform="matrix(-0.9705 0.241 -0.241 -0.9705 2530.0686 308.6996)" class="st5" width="32.4" height="31.1"/>
	
		<rect id="e00:29:55" x="1218.3" y="198.5" transform="matrix(-0.9705 0.241 -0.241 -0.9705 3261.29 29.1954)" class="st5" width="821.1" height="31.1"/>
	
		<rect id="s00:30:11" x="657.6" y="168.1" transform="matrix(-0.9988 4.821476e-02 -4.821476e-02 -0.9988 1356.3851 334.5913)" class="st5" width="33" height="31.1"/>
	
		<rect id="e00:32:50" x="656.9" y="135.8" transform="matrix(-0.9988 4.821476e-02 -4.821476e-02 -0.9988 2690.5112 237.8982)" class="st5" width="1371" height="31.1"/>
</g>
<g id="Spotlight_-_Tudor_-_Notation_J">
	
		<rect id="s00:00:30_1_" x="358.4" y="1074.5" transform="matrix(0.3161 -0.9487 0.9487 0.3161 -779.8865 1113.9213)" class="st5" width="48.6" height="46.8"/>
	
		<rect id="e00:02:10_1_" x="298.6" y="991.5" transform="matrix(0.3161 -0.9487 0.9487 0.3161 -682.1588 1083.3793)" class="st5" width="223.7" height="46.8"/>
	<rect id="s00:02:32_1_" x="507.8" y="719.4" class="st5" width="53.7" height="31.2"/>
	<rect id="e00:03:00_1_" x="507.8" y="719.4" class="st5" width="53.7" height="98.1"/>
	
		<rect id="s00:03:03_1_" x="561.2" y="643.1" transform="matrix(-9.301589e-02 -0.9957 0.9957 -9.301589e-02 -38.3302 1308.4701)" class="st5" width="31.1" height="57.2"/>
	
		<rect id="e00:03:20_1_" x="482.9" y="729.1" transform="matrix(-9.301589e-02 -0.9957 0.9957 -9.301589e-02 -115.2099 1410.514)" class="st5" width="204" height="57.2"/>
	
		<rect id="s00:04:70" x="796.2" y="621" transform="matrix(-0.1853 -0.9827 0.9827 -0.1853 320.7303 1573.2061)" class="st5" width="32.5" height="65.2"/>
	
		<rect id="e00:06:50_1_" x="632.8" y="818.2" transform="matrix(-0.1853 -0.9827 0.9827 -0.1853 171.0781 1843.3779)" class="st5" width="433.7" height="65.2"/>
	
		<rect id="s00:06:90_1_" x="975.9" y="944.4" transform="matrix(-0.9373 -0.3485 0.3485 -0.9373 1572.4839 2257.6987)" class="st5" width="26.8" height="86"/>
	
		<rect id="e00:08:00_1_" x="971.6" y="969.8" transform="matrix(-0.9373 -0.3485 0.3485 -0.9373 1695.6836 2330.5337)" class="st5" width="171.8" height="86"/>
	
		<rect id="s00:08:60_1_" x="1199.9" y="1037" transform="matrix(-0.2124 0.9772 -0.9772 -0.2124 2518.282 106.907)" class="st5" width="32.4" height="62.6"/>
	
		<rect id="e00:09:70_1_" x="1043.5" y="843" transform="matrix(-0.2124 0.9772 -0.9772 -0.2124 2379.843 -169.5096)" class="st5" width="429.4" height="62.6"/>
	<rect id="s00:10:22_1_" x="1340.9" y="632.5" class="st5" width="55.7" height="34.6"/>
	<rect id="e00:10:50_1_" x="1340.9" y="632.5" class="st5" width="55.7" height="179.2"/>
	<rect id="s00:10:96_1_" x="1408.6" y="662.2" class="st5" width="72.2" height="44.4"/>
	<rect id="e00:11:70_1_" x="1408.6" y="662.2" class="st5" width="72.2" height="424.3"/>
	
		<rect id="s00:13:55_1_" x="1567.5" y="966.9" transform="matrix(-0.9278 0.3731 -0.3731 -0.9278 3436.3916 1354.4561)" class="st5" width="39.3" height="85.7"/>
	
		<rect id="e00:15:10_1_" x="1557.5" y="915.7" transform="matrix(-0.9278 0.3731 -0.3731 -0.9278 3662.9106 1208.1154)" class="st5" width="314" height="85.7"/>
	
		<rect id="s00:15:56_1_" x="1853.6" y="663.4" transform="matrix(-0.1874 -0.9823 0.9823 -0.1874 1544.8479 2658.4927)" class="st5" width="37" height="53.7"/>
	
		<rect id="e00:16:20_1_" x="1789.5" y="740.9" transform="matrix(-0.1874 -0.9823 0.9823 -0.1874 1486.3124 2764.9688)" class="st5" width="194.7" height="53.7"/>
	
		<rect id="s00:16:31_1_" x="209.8" y="1192.9" transform="matrix(-0.7868 -0.6173 0.6173 -0.7868 -339.7552 2332.5444)" class="st5" width="46.4" height="64.1"/>
	
		<rect id="e00:17:30_1_" x="195.1" y="1235.6" transform="matrix(-0.7868 -0.6173 0.6173 -0.7868 -268.8232 2442.4998)" class="st5" width="184.8" height="64.1"/>
	<rect id="s00:17:78_1_" x="376.6" y="1183.5" class="st5" width="81.2" height="57.7"/>
	<rect id="e00:18:50_1_" x="376.6" y="1183.5" class="st5" width="81.2" height="344"/>
	<rect id="s00:19:05_1_" x="452.9" y="1439.8" class="st5" width="46.8" height="40.3"/>
	<rect id="e00:20:60_1_" x="452.9" y="1439.8" class="st5" width="46.8" height="127"/>
	
		<rect id="s00:20:84_1_" x="566.7" y="1161.7" transform="matrix(-0.8895 -0.4569 0.4569 -0.8895 562.6081 2575.6355)" class="st5" width="52.1" height="116.1"/>
	
		<rect id="e00:20:90_1_" x="556" y="1206" transform="matrix(-0.8895 -0.4569 0.4569 -0.8895 705.3868 2698.8159)" class="st5" width="246.1" height="116.1"/>
	
		<rect id="s00:22:75_1_" x="821.5" y="1089.8" transform="matrix(-0.3982 -0.9173 0.9173 -0.3982 128.9837 2377.9673)" class="st5" width="46.2" height="113.7"/>
	
		<rect id="e00:25:00_1_" x="710.1" y="1259.6" transform="matrix(-0.3982 -0.9173 0.9173 -0.3982 76.2841 2682.989)" class="st5" width="416.4" height="113.7"/>
	<rect id="s00:26:77_1_" x="1072.4" y="1421.3" class="st5" width="88.3" height="34.6"/>
	<rect id="e00:27:30_1_" x="1072.4" y="1421.3" class="st5" width="88.3" height="154.7"/>
	
		<rect id="s00:27:60_1_" x="1186.3" y="1393.9" transform="matrix(-0.9591 0.2831 -0.2831 -0.9591 2758.373 2506.2407)" class="st5" width="23.6" height="117.1"/>
	
		<rect id="e00:28:70_1_" x="1183.2" y="1368.4" transform="matrix(-0.9591 0.2831 -0.2831 -0.9591 2920.314 2431.855)" class="st5" width="202.4" height="117.1"/>
	
		<rect id="s00:28:92_1_" x="1373.4" y="1470.7" transform="matrix(-6.297801e-02 0.998 -0.998 -6.297801e-02 2979.0688 205.0911)" class="st5" width="39.7" height="60.6"/>
	
		<rect id="e00:29:55_1_" x="1200.1" y="1286.2" transform="matrix(-6.297900e-02 0.998 -0.998 -6.297900e-02 2807.2727 -2.6946)" class="st5" width="409.5" height="60.6"/>
	
		<rect id="s00:30:11_1_" x="1479.2" y="1165" transform="matrix(-0.9543 0.2988 -0.2988 -0.9543 3289.116 1987.6722)" class="st5" width="26.8" height="160.5"/>
	
		<rect id="e00:32:50_1_" x="1472.1" y="1116.7" transform="matrix(-0.9465 0.3228 -0.3228 -0.9465 3570.0081 1800.7058)" class="st5" width="327.2" height="159.3"/>
</g>
</svg>
