<?xml version="1.0" encoding="utf-8"?>
<!-- Generator: Adobe Illustrator 19.1.0, SVG Export Plug-In . SVG Version: 6.00 Build 0)  -->
<svg version="1.1" xmlns="http://www.w3.org/2000/svg" xmlns:xlink="http://www.w3.org/1999/xlink" x="0px" y="0px"
	 viewBox="0 0 612 792" style="enable-background:new 0 0 612 792;" xml:space="preserve">
<style type="text/css">
	.st0{opacity:0.2;fill:#FF0043;}
</style>
<g id="Image_-_Notation_J">
	
		<image style="overflow:visible;" width="2371" height="2225" xlink:href="../../../../../Desktop/NotationJ_MOCKUP_REV.jpg"  transform="matrix(0.24 0 0 0.24 21.592 92.1056)">
	</image>
</g>
<g id="Spotlight_-_Cage_-_Notation_J">
	
		<rect id="s00:00:30" x="175.1" y="275.2" transform="matrix(0.967 0.2546 -0.2546 0.967 77.1291 -36.5185)" class="st0" width="9" height="9"/>
	
		<rect id="e00:02:10" x="25.6" y="255.8" transform="matrix(0.967 0.2546 -0.2546 0.967 69.7778 -18.438)" class="st0" width="161" height="9"/>
	
		<rect id="s00:04:70" x="174.7" y="275.4" transform="matrix(0.8431 -0.5377 0.5377 0.8431 -122.1714 140.9846)" class="st0" width="11.7" height="9"/>
	
		<rect id="e00:06:50" x="163.2" y="235.9" transform="matrix(0.8431 -0.5377 0.5377 0.8431 -91.2404 168.0697)" class="st0" width="158.5" height="9"/>
</g>
<g id="Spotlight_-_Tudor_-_Notation_J">
	
		<rect id="s00:00:30_1_" x="102.9" y="445.2" transform="matrix(0.3161 -0.9487 0.9487 0.3161 -353.6486 413.3189)" class="st0" width="14" height="13.5"/>
	
		<rect id="e00:02:10_1_" x="85.6" y="421.2" transform="matrix(0.3161 -0.9487 0.9487 0.3161 -325.4332 404.501)" class="st0" width="64.6" height="13.5"/>
</g>
</svg>
